# Blender 3.4.1
# www.blender.org
mtllib multi_cube_tri.mtl
o Cube
v -1.000000 -1.000000 1.000000
v -1.000000 1.000000 1.000000
v -1.000000 -1.000000 -1.000000
v -1.000000 1.000000 -1.000000
v 1.000000 -1.000000 1.000000
v 1.000000 1.000000 1.000000
v 1.000000 -1.000000 -1.000000
v 1.000000 1.000000 -1.000000
v -1.000000 3.000000 1.000000
v -1.000000 3.000000 -1.000000
v 1.000000 3.000000 1.000000
v 1.000000 3.000000 -1.000000
v -3.000000 -1.000000 1.000000
v -3.000000 1.000000 1.000000
v -3.000000 -1.000000 -1.000000
v -3.000000 1.000000 -1.000000
v -1.000000 -1.000000 3.000000
v -1.000000 1.000000 3.000000
v 1.000000 -1.000000 3.000000
v 1.000000 1.000000 3.000000
v 3.000000 -1.000000 1.000000
v 3.000000 1.000000 1.000000
v 3.000000 -1.000000 -1.000000
v 3.000000 1.000000 -1.000000
v -1.000000 -1.000000 -3.000000
v -1.000000 1.000000 -3.000000
v 1.000000 -1.000000 -3.000000
v 1.000000 1.000000 -3.000000
v -1.000000 -3.000000 1.000000
v -1.000000 -3.000000 -1.000000
v 1.000000 -3.000000 1.000000
v 1.000000 -3.000000 -1.000000
vn -0.0000 -0.0000 -1.0000
vn -0.0000 1.0000 -0.0000
vn -1.0000 -0.0000 -0.0000
vn -0.0000 -0.0000 1.0000
vn 1.0000 -0.0000 -0.0000
vn -0.0000 -1.0000 -0.0000
vt 0.375000 1.000000
vt 0.125000 0.750000
vt 0.625000 0.000000
vt 0.625000 1.000000
vt 0.375000 0.250000
vt 0.125000 0.500000
vt 0.625000 0.250000
vt 0.375000 0.750000
vt 0.625000 0.750000
vt 0.375000 0.500000
vt 0.625000 0.500000
vt 0.875000 0.750000
vt 0.625000 0.000000
vt 0.625000 1.000000
vt 0.875000 0.500000
vt 0.625000 0.250000
vt 0.625000 0.750000
vt 0.625000 0.500000
vt 0.375000 0.000000
vt 0.375000 1.000000
vt 0.125000 0.750000
vt 0.625000 1.000000
vt 0.625000 0.000000
vt 0.375000 0.250000
vt 0.125000 0.500000
vt 0.625000 0.250000
vt 0.375000 1.000000
vt 0.125000 0.750000
vt 0.625000 1.000000
vt 0.375000 0.750000
vt 0.625000 0.750000
vt 0.375000 0.750000
vt 0.625000 0.750000
vt 0.375000 0.500000
vt 0.625000 0.500000
vt 0.375000 0.250000
vt 0.125000 0.500000
vt 0.625000 0.250000
vt 0.375000 0.500000
vt 0.625000 0.500000
vt 0.125000 0.750000
vt 0.125000 0.500000
vt 0.375000 0.750000
vt 0.375000 0.500000
s 0
f 3/5/1 16/26/1 4/7/1
f 8/11/2 26/38/2 4/7/2
f 6/9/2 24/35/2 8/11/2
f 1/1/3 18/29/3 2/4/3
f 1/2/4 31/43/4 5/8/4
f 4/7/1 12/18/1 8/11/1
f 10/15/2 11/17/2 12/18/2
f 8/11/5 11/17/5 6/9/5
f 2/3/3 10/16/3 4/7/3
f 6/9/4 9/14/4 2/4/4
f 14/23/3 15/24/3 13/19/3
f 2/4/4 13/20/4 1/1/4
f 4/7/2 14/23/2 2/3/2
f 1/2/6 15/25/6 3/6/6
f 20/31/4 17/27/4 19/30/4
f 5/8/6 17/28/6 1/2/6
f 2/4/2 20/31/2 6/9/2
f 6/9/5 19/30/5 5/8/5
f 24/35/5 21/32/5 23/34/5
f 8/11/1 23/34/1 7/10/1
f 5/8/4 22/33/4 6/9/4
f 7/10/6 21/32/6 5/8/6
f 26/38/1 27/39/1 25/36/1
f 4/7/3 25/36/3 3/5/3
f 7/10/5 28/40/5 8/11/5
f 3/6/6 27/39/6 7/10/6
f 32/44/6 29/41/6 30/42/6
f 7/10/1 30/42/1 3/6/1
f 3/6/3 29/41/3 1/2/3
f 5/8/5 32/44/5 7/10/5
f 3/5/1 15/24/1 16/26/1
f 8/11/2 28/40/2 26/38/2
f 6/9/2 22/33/2 24/35/2
f 1/1/3 17/27/3 18/29/3
f 1/2/4 29/41/4 31/43/4
f 4/7/1 10/16/1 12/18/1
f 10/15/2 9/12/2 11/17/2
f 8/11/5 12/18/5 11/17/5
f 2/3/3 9/13/3 10/16/3
f 6/9/4 11/17/4 9/14/4
f 14/23/3 16/26/3 15/24/3
f 2/4/4 14/22/4 13/20/4
f 4/7/2 16/26/2 14/23/2
f 1/2/6 13/21/6 15/25/6
f 20/31/4 18/29/4 17/27/4
f 5/8/6 19/30/6 17/28/6
f 2/4/2 18/29/2 20/31/2
f 6/9/5 20/31/5 19/30/5
f 24/35/5 22/33/5 21/32/5
f 8/11/1 24/35/1 23/34/1
f 5/8/4 21/32/4 22/33/4
f 7/10/6 23/34/6 21/32/6
f 26/38/1 28/40/1 27/39/1
f 4/7/3 26/38/3 25/36/3
f 7/10/5 27/39/5 28/40/5
f 3/6/6 25/37/6 27/39/6
f 32/44/6 31/43/6 29/41/6
f 7/10/1 32/44/1 30/42/1
f 3/6/3 30/42/3 29/41/3
f 5/8/5 31/43/5 32/44/5
