# Blender 3.4.1
# www.blender.org
o Torus.001
v 1.400000 0.000000 0.000000
v 1.000000 0.400000 0.000000
v 0.600000 0.000000 0.000000
v 1.000000 -0.400000 0.000000
v 0.989949 0.000000 -0.989950
v 0.707107 0.400000 -0.707107
v 0.424264 0.000000 -0.424264
v 0.707107 -0.400000 -0.707107
v 0.000000 0.000000 -1.400000
v 0.000000 0.400000 -1.000000
v 0.000000 0.000000 -0.600000
v 0.000000 -0.400000 -1.000000
v -0.989950 0.000000 -0.989949
v -0.707107 0.400000 -0.707107
v -0.424264 0.000000 -0.424264
v -0.707107 -0.400000 -0.707107
v -1.400000 0.000000 -0.000000
v -1.000000 0.400000 -0.000000
v -0.600000 0.000000 -0.000000
v -1.000000 -0.400000 -0.000000
v -0.989950 0.000000 0.989949
v -0.707107 0.400000 0.707107
v -0.424264 0.000000 0.424264
v -0.707107 -0.400000 0.707107
v 0.000000 0.000000 1.400000
v 0.000000 0.400000 1.000000
v 0.000000 0.000000 0.600000
v 0.000000 -0.400000 1.000000
v 0.989949 0.000000 0.989950
v 0.707106 0.400000 0.707107
v 0.424264 0.000000 0.424264
v 0.707106 -0.400000 0.707107
vn 0.6786 0.6786 -0.2811
vn -0.6786 0.6786 0.2811
vn -0.6786 -0.6786 0.2811
vn 0.6786 -0.6786 -0.2811
vn 0.2811 0.6786 -0.6786
vn -0.2811 0.6786 0.6786
vn -0.2811 -0.6786 0.6786
vn 0.2811 -0.6786 -0.6786
vn -0.2811 0.6786 -0.6786
vn 0.2811 0.6786 0.6786
vn 0.2811 -0.6786 0.6786
vn -0.2811 -0.6786 -0.6786
vn -0.6786 0.6786 -0.2811
vn 0.6786 0.6786 0.2811
vn 0.6786 -0.6786 0.2811
vn -0.6786 -0.6786 -0.2811
vt 0.500000 0.500000
vt 0.500000 0.750000
vt 0.500000 1.000000
vt 0.500000 0.000000
vt 0.500000 0.250000
vt 0.625000 0.500000
vt 0.625000 0.750000
vt 0.625000 1.000000
vt 0.625000 0.000000
vt 0.625000 0.250000
vt 0.750000 0.500000
vt 0.750000 0.750000
vt 0.750000 1.000000
vt 0.750000 0.000000
vt 0.750000 0.250000
vt 0.875000 0.500000
vt 0.875000 0.750000
vt 0.875000 1.000000
vt 0.875000 0.000000
vt 0.875000 0.250000
vt 1.000000 0.500000
vt 0.000000 0.500000
vt 1.000000 0.750000
vt 0.000000 0.750000
vt 1.000000 1.000000
vt 1.000000 0.000000
vt 0.000000 1.000000
vt 0.000000 0.000000
vt 1.000000 0.250000
vt 0.000000 0.250000
vt 0.125000 0.500000
vt 0.125000 0.750000
vt 0.125000 1.000000
vt 0.125000 0.000000
vt 0.125000 0.250000
vt 0.250000 0.500000
vt 0.250000 0.750000
vt 0.250000 1.000000
vt 0.250000 0.000000
vt 0.250000 0.250000
vt 0.375000 0.500000
vt 0.375000 0.750000
vt 0.375000 1.000000
vt 0.375000 0.000000
vt 0.375000 0.250000
s 0
f 1/1/1 5/6/1 6/7/1 2/2/1
f 2/2/2 6/7/2 7/8/2 3/3/2
f 3/4/3 7/9/3 8/10/3 4/5/3
f 4/5/4 8/10/4 5/6/4 1/1/4
f 5/6/5 9/11/5 10/12/5 6/7/5
f 6/7/6 10/12/6 11/13/6 7/8/6
f 7/9/7 11/14/7 12/15/7 8/10/7
f 8/10/8 12/15/8 9/11/8 5/6/8
f 9/11/9 13/16/9 14/17/9 10/12/9
f 10/12/10 14/17/10 15/18/10 11/13/10
f 11/14/11 15/19/11 16/20/11 12/15/11
f 12/15/12 16/20/12 13/16/12 9/11/12
f 13/16/13 17/21/13 18/23/13 14/17/13
f 14/17/14 18/23/14 19/25/14 15/18/14
f 15/19/15 19/26/15 20/29/15 16/20/15
f 16/20/16 20/29/16 17/21/16 13/16/16
f 17/22/2 21/31/2 22/32/2 18/24/2
f 18/24/1 22/32/1 23/33/1 19/27/1
f 19/28/4 23/34/4 24/35/4 20/30/4
f 20/30/3 24/35/3 21/31/3 17/22/3
f 21/31/6 25/36/6 26/37/6 22/32/6
f 22/32/5 26/37/5 27/38/5 23/33/5
f 23/34/8 27/39/8 28/40/8 24/35/8
f 24/35/7 28/40/7 25/36/7 21/31/7
f 25/36/10 29/41/10 30/42/10 26/37/10
f 26/37/9 30/42/9 31/43/9 27/38/9
f 27/39/12 31/44/12 32/45/12 28/40/12
f 28/40/11 32/45/11 29/41/11 25/36/11
f 29/41/14 1/1/14 2/2/14 30/42/14
f 30/42/13 2/2/13 3/3/13 31/43/13
f 31/44/16 3/4/16 4/5/16 32/45/16
f 32/45/15 4/5/15 1/1/15 29/41/15
